<?xml version="1.0" encoding="UTF-8"?>
<svg width="auto" height="auto" viewBox="0 0 50 65" version="1.1" xmlns="http://www.w3.org/2000/svg" xmlns:xlink="http://www.w3.org/1999/xlink">
    <title>brainfix</title>
    <defs>
        <filter id="filter-1">
            <feColorMatrix in="SourceGraphic" type="matrix" values="0 0 0 0 1.000000 0 0 0 0 0.994931 0 0 0 0 0.994931 0 0 0 1.000000 0"></feColorMatrix>
        </filter>
    </defs>
    <g id="Page-1" stroke="none" stroke-width="1" fill="none" fill-rule="evenodd">
        <g filter="url(#filter-1)" id="brainfix">
            <g>
                <g id="Group" fill="#000000" fill-rule="nonzero">
                    <path d="M48.1,23.6 C46.5,23.6 45.1,24.9 45.1,26.6 L45.1,32.3 C45.1,33.9 44.5,35.5 43.4,36.6 L36.8,43.6 C35.3,45.2 32.8,43.7 33.6,43 L38.7,37.9 C40.2,36.4 40.2,33.9 38.7,32.3 C37.7,31.3 37.1,33.2 30.7,39.2 C26.4,43.5 28.6,48.4 28,59.7 C28,59.9 28.1,60 28.3,60 L37.6,60 C37.8,60 37.9,59.9 37.9,59.7 L37.9,56 C37.9,51.4 41.2,49.7 46.6,42.4 C50.7,38.3 48.7,33.6 49.2,24.8 C49.2,24.1 48.7,23.6 48.1,23.6 Z" id="Path"></path>
                    <path d="M12,59.8 C12,60 12.1,60.1 12.3,60.1 L21.5,60.1 C21.7,60.1 21.8,60 21.8,59.8 C21.2,48.8 23.4,43.9 19.1,39.7 L12.3,32.9 C12.2,32.7 12,32.7 11.8,32.7 C11.6,32.7 11.4,32.8 11.3,32.9 C9.8,34.4 9.8,36.9 11.3,38.4 C16.2,43.4 16.9,43.6 16.3,44.1 C15.4,45 14,45 13.1,44 C8.1,38.1 4.9,36.8 4.9,32.8 L4.9,27.2 C4.9,26.4 4.6,25.7 4,25.1 C3.5,24.6 2.7,24.2 1.9,24.2 C1.3,24.2 0.8,24.7 0.8,25.3 C1.3,33.9 -0.7,38.6 3.4,42.7 L10.2,51 C11.4,52.4 12,54.2 12,56.1 L12,59.8 Z" id="Path"></path>
                    <path d="M22.7,61.7 L11,61.7 C10.8,61.7 10.7,61.8 10.7,62 L10.7,64.6 C10.7,64.8 10.8,64.9 11,64.9 L22.6,64.9 C22.8,64.9 22.9,64.8 22.9,64.6 L22.9,62 C23,61.9 22.8,61.7 22.7,61.7 Z" id="Path"></path>
                    <path d="M38.7,61.7 L27.1,61.7 C26.9,61.7 26.8,61.8 26.8,62 L26.8,64.6 C26.8,64.8 26.9,64.9 27.1,64.9 L38.7,64.9 C38.9,64.9 39,64.8 39,64.6 L39,62 C39,61.9 38.9,61.7 38.7,61.7 Z" id="Path"></path>
                    <path d="M32.9,33.1 C35.4,33.6 38,31.4 37.6,28.6 C36.6,28.8 33.9,28.7 34.2,27.9 C34.3,27.7 34.5,27.6 34.7,27.6 C39.9,29.2 42.1,23.9 39.5,21.2 C41.6,19.5 41.5,16.3 39.2,14.7 C40.7,12.5 39.6,9.4 37.1,8.6 C37,9.3 36.4,11.3 35.8,10.9 C35.6,10.8 35.5,10.5 35.7,10.4 C35.7,10.4 36.2,9.6 36.4,8.5 L36.4,8.5 C37.3,5.5 34.7,2.7 31.9,3.3 C30.6,0.8 27.3,0.4 25.5,2.2 L25.5,14 C25.8,13.8 26,13.5 26.1,13.2 C26.2,13 26.4,12.9 26.6,13 C26.8,13.1 26.9,13.3 26.8,13.5 C26.6,14.1 26.1,14.6 25.5,14.9 L25.5,22.2 C26.2,22.5 26.8,23 27.1,23.8 C27.2,24 27.1,24.2 26.9,24.3 C26.9,24.3 26.8,24.3 26.8,24.3 C26.6,24.3 26.5,24.2 26.4,24 C26.2,23.6 25.9,23.2 25.5,23 L25.5,33.5 C27.1,36.7 31.7,36.4 32.9,33.1 Z M36.8,12.2 C38.1,14 37.4,16.2 36.7,16.2 C36.6,16.2 36.6,16.2 36.5,16.1 C36.3,16 36.3,15.7 36.4,15.6 C37.3,14.2 36.2,12.7 36.2,12.7 C35.8,12.2 36.5,11.8 36.8,12.2 Z M36.1,21.2 C38.5,20.6 39.4,18.5 38.7,16.4 C38.6,16.2 38.8,16 39,15.9 C39.9,15.6 40.2,19.1 38.5,20.8 C40.3,23.3 38.6,26.1 37.8,26.1 C37.4,26.1 37.3,25.6 37.6,25.4 C38.7,24.6 39,22.9 37.9,21.3 C37.5,21.6 36.9,21.8 36.3,22 C36.3,22 36.2,22 36.2,22 C36,22 35.9,21.9 35.8,21.7 C35.8,21.5 35.9,21.3 36.1,21.2 Z M35.7,23.4 C36.1,24 36,24.9 35.5,25.4 C35,25.9 34.3,25.9 33.8,26.1 C33.2,26.3 33.1,26.8 33.2,27 C33.4,27.3 33.2,27.6 32.9,27.6 C32.3,27.6 31.9,26 33.5,25.4 C33.7,25.3 33.9,25.3 34.1,25.2 C34.4,25.1 34.8,25 35,24.8 C35.3,24.6 35.3,24.1 35.1,23.8 C35,23.6 35,23.4 35.2,23.2 C35.4,23.2 35.6,23.2 35.7,23.4 Z M35.5,14.1 C35.5,14.3 35.3,14.5 35.1,14.5 C33.7,14.4 32.6,15 31.8,15.7 C33.4,16.4 34.9,17.1 35.3,18.3 C35.4,18.5 35.3,18.7 35.1,18.8 C35.1,18.8 35,18.8 35,18.8 C34.8,18.8 34.7,18.7 34.6,18.5 C34.2,17.5 32.1,16.7 31,16.1 C30.9,16 29.1,15.4 28.8,12.3 C28.8,11.8 29.5,11.7 29.6,12.2 C29.7,13.2 30,14.5 31.1,15.2 C32,14.4 33.5,13.5 35.3,13.6 C35.4,13.7 35.6,13.8 35.5,14.1 Z M30.4,9.5 C30.1,9.1 30.7,8.6 31,9 C32.4,11 31.5,13.4 30.7,12.9 C30.5,12.8 30.5,12.5 30.6,12.4 C31.5,11.1 30.4,9.5 30.4,9.5 Z M26.7,3.5 C26.2,2.8 28.1,2.1 29.5,3.2 C30.9,4.2 31.1,6.1 32.3,7.1 C32.8,7.5 33.5,7.7 34.1,7.3 C34.7,6.9 35.3,8.3 33.5,8.3 C32.2,8.3 31.3,7.4 30.7,6.2 C30,8.2 27.9,7.3 27.8,9.3 C27.8,9.5 27.6,9.7 27.4,9.7 C27.4,9.7 27.4,9.7 27.4,9.7 C27.2,9.7 27,9.5 27,9.3 C27,8.4 27.5,7.5 28.8,7 C28.9,6.9 29.1,6.9 29.2,6.8 C29.8,6.5 30.1,5.7 30,5.1 C30,5.1 30,5.1 30,5 C29.7,4.6 29.5,4.2 29.1,3.9 C28.6,3.5 27.8,3.3 27.3,3.7 C27,3.8 26.8,3.7 26.7,3.5 Z M26.7,17.8 C27.1,17.1 28.1,16.9 29,17.8 C29.4,18.2 29.7,18.7 30.1,18.9 C30.9,19.2 31,18.1 31.6,18.4 C32.3,18.8 31.2,19.7 30.4,19.7 C29.7,19.7 29.3,19.2 28.8,18.7 C28.6,18.4 28.3,18 27.9,18 C27.7,18 27.5,18.1 27.5,18.2 C27.4,18.4 27.2,18.5 27,18.4 C26.7,18.2 26.6,18 26.7,17.8 Z M27,21.6 C26.9,21.4 27,21.2 27.2,21.1 C29.1,20.4 30.5,21.3 31.3,23 C32.6,22.3 34,22.4 34.4,21.5 C34.5,21.2 34.5,20.8 34.3,20.4 C34.2,20.2 34.3,20 34.5,19.9 C34.7,19.8 34.9,19.9 35,20.1 C35.3,20.8 35.4,21.4 35.1,21.9 C34.7,22.7 33.9,23 33.2,23.2 C32.4,23.4 31.8,23.6 31.3,24 C30.8,24.3 30.4,24.7 30.3,25.1 C30.2,25.3 30.2,25.6 30.2,25.9 C30.2,26.1 30,26.3 29.8,26.3 L29.8,26.3 C29.6,26.3 29.4,26.1 29.4,25.9 C29.4,24.9 29.9,24.1 30.7,23.5 C30.1,22.1 29.1,21.4 27.6,21.9 C27.3,21.9 27,21.8 27,21.6 Z M27.6,34.1 C27.8,33.2 29.4,34.9 30.6,31.9 C29.4,31.5 28.4,30.4 27.6,28.7 C27.5,28.5 27.6,28.3 27.8,28.2 C28,28.1 28.2,28.2 28.3,28.4 C29.7,31.2 32.1,32.4 34.4,30.3 C34.6,30.2 34.8,30.2 35,30.3 C35.7,31 32.9,32.3 31.4,32.1 C30.1,35.3 27.5,34.8 27.6,34.1 Z" id="Shape"></path>
                    <path d="M18.1,3.2 C15.4,2.7 12.7,5.3 13.6,8.4 L13.6,8.4 C13.8,9.5 14.3,10.3 14.3,10.3 C14.6,10.8 13.9,11.1 13.6,10.7 C13.6,10.6 13.1,9.7 12.8,8.5 C11.2,9 10,10.5 10,12.3 C10,13.1 10.3,13.9 10.7,14.5 C9.7,15.2 9,16.4 9,17.8 C9,19.1 9.6,20.2 10.5,20.9 C9.8,21.6 9.4,22.6 9.4,23.7 C9.4,25.4 10.4,26.8 11.8,27.4 C14.1,28.3 15.5,26.8 15.8,27.6 C16,28.3 13.9,28.4 13.4,28.4 C13.1,28.4 12.7,28.4 12.3,28.3 C12.3,28.5 12.3,28.6 12.3,28.8 C12.3,31.4 14.7,33.3 17.1,32.8 C18.3,36.1 22.9,36.4 24.5,33.3 L24.5,23.1 C23.6,23.6 23.7,24.5 23.1,24.3 C22.3,24 23.5,22.6 24.5,22.2 L24.5,15 C23.9,14.7 23.4,14.2 23.2,13.6 C23.1,13.4 23.2,13.2 23.4,13.1 C23.6,13 23.8,13.1 23.9,13.3 C24,13.6 24.2,13.9 24.5,14.1 L24.5,2.1 C22.7,0.3 19.4,0.7 18.1,3.2 Z M19,15.2 C20.1,14.5 20.4,13.2 20.5,12.2 C20.5,12 20.7,11.8 20.9,11.8 C21.1,11.8 21.3,12 21.3,12.2 C21.1,15.3 19.2,15.9 19.1,16 C18,16.6 15.9,17.3 15.5,18.4 C15.2,19.2 12.9,18 18.2,15.6 C15.8,13.7 14.5,14.9 14.4,14.1 C14.4,13.1 17.3,13.8 19,15.2 Z M19.4,12.4 C19.5,12.6 19.5,12.8 19.3,12.9 C19.2,13 19.1,13 19,13 C18.9,13 18.7,12.9 18.7,12.8 C17.6,11 18.9,9.1 19,9 C19.1,8.8 19.4,8.8 19.6,8.9 C19.8,9 19.8,9.3 19.7,9.5 C19.6,9.5 18.5,11.1 19.4,12.4 Z M13.2,12.2 C13.3,12 13.6,12 13.8,12.1 C14.5,12.6 12.5,13.8 13.7,15.6 C14,16 13.3,16.5 13,16 C11.8,14.2 13.2,12.3 13.2,12.2 Z M12.1,21.3 C11,22.9 11.4,24.6 12.4,25.4 C12.6,25.5 12.6,25.8 12.5,26 C12.4,26.2 12.1,26.2 11.9,26.1 C10.5,25 10,22.9 11.4,20.9 C9.6,19.2 10.1,15.8 10.9,16 C11.7,16.2 10.3,17.7 11.5,19.7 C12.5,21.5 14.3,20.9 14.1,21.7 C14,22.4 12.6,21.6 12.1,21.3 Z M14.5,25.4 C13.5,24.5 14.2,22.8 14.8,23.3 C15.3,23.7 14.3,24.2 15,24.8 C15.3,25.1 15.9,25.1 16.4,25.3 C18.3,26 17.5,28 16.8,27.5 C16.3,27.1 17.4,26.5 16.1,26.1 C15.6,25.9 15,25.9 14.5,25.4 Z M22.4,28.7 C21.6,30.4 20.5,31.4 19.4,31.9 C20.6,34.9 22.2,33.2 22.4,34.1 C22.5,34.8 19.9,35.3 18.6,32.1 C17.3,32.3 14.3,31.1 15,30.3 C15.6,29.7 16.4,31.7 18.7,31.3 C18.7,31.3 18.7,31.3 18.7,31.3 C18.9,31.2 20.3,31.2 21.7,28.4 C21.8,28.2 22,28.1 22.2,28.2 C22.4,28.3 22.5,28.5 22.4,28.7 Z M22.5,21.9 C21,21.4 20,22.1 19.4,23.5 C20.2,24.1 20.7,24.9 20.7,25.9 C20.7,26.1 20.5,26.3 20.3,26.3 L20.3,26.3 C20.1,26.3 19.9,26.1 19.9,25.9 C19.9,25.6 19.9,25.4 19.8,25.1 C19.6,24.7 19.3,24.3 18.8,24 C18.3,23.7 17.7,23.4 16.9,23.2 C15.2,22.8 14.4,21.7 15.1,20.1 C15.3,19.6 16,20 15.8,20.4 C14.9,22.4 17.3,22.3 18.7,23 C19.4,21.3 20.9,20.4 22.8,21.1 C23.3,21.3 23,22 22.5,21.9 Z M23.3,17.8 C23.4,18 23.3,18.2 23.1,18.3 C22.6,18.6 22.6,17.9 22.1,18 C21.2,18.1 20.9,19.7 19.6,19.7 C18.7,19.7 17.7,18.8 18.4,18.4 C19.1,18 19.2,19.9 20.6,18.2 C21.8,16.8 22.9,17 23.3,17.8 Z M22.8,3.6 C22.2,3.2 21.1,3.3 20.1,4.9 C19.9,6.7 21,6.7 21.8,7.1 C22.6,7.5 23.1,8.3 23.1,9.2 C23.1,9.4 22.9,9.6 22.7,9.6 L22.7,9.6 C22.5,9.6 22.3,9.4 22.3,9.2 C22.3,8.6 21.9,8.1 21.4,7.8 C21.3,7.7 21.1,7.7 21,7.6 C20.3,7.3 19.7,7 19.4,6.1 C17.6,9.3 14.9,8.1 15.4,7.3 C15.9,6.7 17,9.1 19,5.3 C19.4,4.6 19.8,3.8 20.5,3.2 C21.2,2.7 22.3,2.4 23.2,3 C23.7,3.3 23.2,3.9 22.8,3.6 Z" id="Shape"></path>
                </g>
                <g id="Group" fill="#000000" fill-rule="nonzero">
                    <path d="M48.1,23.6 C46.5,23.6 45.1,24.9 45.1,26.6 L45.1,32.3 C45.1,33.9 44.5,35.5 43.4,36.6 L36.8,43.6 C35.3,45.2 32.8,43.7 33.6,43 L38.7,37.9 C40.2,36.4 40.2,33.9 38.7,32.3 C37.7,31.3 37.1,33.2 30.7,39.2 C26.4,43.5 28.6,48.4 28,59.7 C28,59.9 28.1,60 28.3,60 L37.6,60 C37.8,60 37.9,59.9 37.9,59.7 L37.9,56 C37.9,51.4 41.2,49.7 46.6,42.4 C50.7,38.3 48.7,33.6 49.2,24.8 C49.2,24.1 48.7,23.6 48.1,23.6 Z" id="Path"></path>
                    <path d="M12,59.8 C12,60 12.1,60.1 12.3,60.1 L21.5,60.1 C21.7,60.1 21.8,60 21.8,59.8 C21.2,48.8 23.4,43.9 19.1,39.7 L12.3,32.9 C12.2,32.7 12,32.7 11.8,32.7 C11.6,32.7 11.4,32.8 11.3,32.9 C9.8,34.4 9.8,36.9 11.3,38.4 C16.2,43.4 16.9,43.6 16.3,44.1 C15.4,45 14,45 13.1,44 C8.1,38.1 4.9,36.8 4.9,32.8 L4.9,27.2 C4.9,26.4 4.6,25.7 4,25.1 C3.5,24.6 2.7,24.2 1.9,24.2 C1.3,24.2 0.8,24.7 0.8,25.3 C1.3,33.9 -0.7,38.6 3.4,42.7 L10.2,51 C11.4,52.4 12,54.2 12,56.1 L12,59.8 Z" id="Path"></path>
                    <path d="M22.7,61.7 L11,61.7 C10.8,61.7 10.7,61.8 10.7,62 L10.7,64.6 C10.7,64.8 10.8,64.9 11,64.9 L22.6,64.9 C22.8,64.9 22.9,64.8 22.9,64.6 L22.9,62 C23,61.9 22.8,61.7 22.7,61.7 Z" id="Path"></path>
                    <path d="M38.7,61.7 L27.1,61.7 C26.9,61.7 26.8,61.8 26.8,62 L26.8,64.6 C26.8,64.8 26.9,64.9 27.1,64.9 L38.7,64.9 C38.9,64.9 39,64.8 39,64.6 L39,62 C39,61.9 38.9,61.7 38.7,61.7 Z" id="Path"></path>
                    <path d="M32.9,33.1 C35.4,33.6 38,31.4 37.6,28.6 C36.6,28.8 33.9,28.7 34.2,27.9 C34.3,27.7 34.5,27.6 34.7,27.6 C39.9,29.2 42.1,23.9 39.5,21.2 C41.6,19.5 41.5,16.3 39.2,14.7 C40.7,12.5 39.6,9.4 37.1,8.6 C37,9.3 36.4,11.3 35.8,10.9 C35.6,10.8 35.5,10.5 35.7,10.4 C35.7,10.4 36.2,9.6 36.4,8.5 L36.4,8.5 C37.3,5.5 34.7,2.7 31.9,3.3 C30.6,0.8 27.3,0.4 25.5,2.2 L25.5,14 C25.8,13.8 26,13.5 26.1,13.2 C26.2,13 26.4,12.9 26.6,13 C26.8,13.1 26.9,13.3 26.8,13.5 C26.6,14.1 26.1,14.6 25.5,14.9 L25.5,22.2 C26.2,22.5 26.8,23 27.1,23.8 C27.2,24 27.1,24.2 26.9,24.3 C26.7,24.4 26.5,24.3 26.4,24.1 C26.2,23.7 25.9,23.3 25.5,23.1 L25.5,33.6 C27.1,36.7 31.7,36.4 32.9,33.1 Z M36.8,12.2 C38.1,14 37.4,16.2 36.7,16.2 C36.6,16.2 36.6,16.2 36.5,16.1 C36.3,16 36.3,15.7 36.4,15.6 C37.3,14.2 36.2,12.7 36.2,12.7 C35.8,12.2 36.5,11.8 36.8,12.2 Z M36.1,21.2 C38.5,20.6 39.4,18.5 38.7,16.4 C38.6,16.2 38.8,16 39,15.9 C39.9,15.6 40.2,19.1 38.5,20.8 C40.3,23.3 38.6,26.1 37.8,26.1 C37.4,26.1 37.3,25.6 37.6,25.4 C38.7,24.6 39,22.9 37.9,21.3 C37.5,21.6 36.9,21.8 36.3,22 C36.3,22 36.2,22 36.2,22 C36,22 35.9,21.9 35.8,21.7 C35.8,21.5 35.9,21.3 36.1,21.2 Z M35.7,23.4 C36.1,24 36,24.9 35.5,25.4 C35,25.9 34.3,25.9 33.8,26.1 C33.2,26.3 33.1,26.8 33.2,27 C33.4,27.3 33.2,27.6 32.9,27.6 C32.3,27.6 31.9,26 33.5,25.4 C33.7,25.3 33.9,25.3 34.1,25.2 C34.4,25.1 34.8,25 35,24.8 C35.3,24.6 35.3,24.1 35.1,23.8 C35,23.6 35,23.4 35.2,23.2 C35.4,23.2 35.6,23.2 35.7,23.4 Z M35.5,14.1 C35.5,14.3 35.3,14.5 35.1,14.5 C33.7,14.4 32.6,15 31.8,15.7 C33.4,16.4 34.9,17.1 35.3,18.3 C35.4,18.5 35.3,18.7 35.1,18.8 C35.1,18.8 35,18.8 35,18.8 C34.8,18.8 34.7,18.7 34.6,18.5 C34.2,17.5 32.1,16.7 31,16.1 C30.9,16 29.1,15.4 28.8,12.3 C28.8,11.8 29.5,11.7 29.6,12.2 C29.7,13.2 30,14.5 31.1,15.2 C32,14.4 33.5,13.5 35.3,13.6 C35.4,13.7 35.6,13.8 35.5,14.1 Z M30.4,9.5 C30.1,9.1 30.7,8.6 31,9 C32.4,11 31.5,13.4 30.7,12.9 C30.5,12.8 30.5,12.5 30.6,12.4 C31.5,11.1 30.4,9.5 30.4,9.5 Z M26.7,3.5 C26.2,2.8 28.1,2.1 29.5,3.2 C30.9,4.2 31.1,6.1 32.3,7.1 C32.8,7.5 33.5,7.7 34.1,7.3 C34.7,6.9 35.3,8.3 33.5,8.3 C32.2,8.3 31.3,7.4 30.7,6.2 C30,8.2 27.9,7.3 27.8,9.3 C27.8,9.5 27.6,9.7 27.4,9.7 C27.4,9.7 27.4,9.7 27.4,9.7 C27.2,9.7 27,9.5 27,9.3 C27,6.6 30.6,7.4 30,5.1 C30,5.1 30,5.1 30,5 C29.7,4.6 29.5,4.2 29.1,3.9 C28.6,3.5 27.8,3.3 27.3,3.7 C27,3.8 26.8,3.7 26.7,3.5 Z M26.7,17.8 C27.1,17.1 28.1,16.9 29,17.8 C29.4,18.2 29.7,18.7 30.1,18.9 C30.9,19.2 31,18.1 31.6,18.4 C32.3,18.8 31.2,19.7 30.4,19.7 C29.7,19.7 29.3,19.2 28.8,18.7 C28.6,18.4 28.3,18 27.9,18 C27.7,18 27.5,18.1 27.5,18.2 C27.4,18.4 27.2,18.5 27,18.4 C26.7,18.2 26.6,18 26.7,17.8 Z M27,21.6 C26.9,21.4 27,21.2 27.2,21.1 C29.1,20.4 30.5,21.3 31.3,23 C32.6,22.3 34,22.4 34.4,21.5 C34.5,21.2 34.5,20.8 34.3,20.4 C34.2,20.2 34.3,20 34.5,19.9 C34.7,19.8 34.9,19.9 35,20.1 C35.3,20.8 35.4,21.4 35.1,21.9 C34.7,22.7 33.9,23 33.2,23.2 C32.4,23.4 31.8,23.6 31.3,24 C30.8,24.3 30.4,24.7 30.3,25.1 C30.2,25.3 30.2,25.6 30.2,25.9 C30.2,26.1 30,26.3 29.8,26.3 L29.8,26.3 C29.6,26.3 29.4,26.1 29.4,25.9 C29.4,24.9 29.9,24.1 30.7,23.5 C30.1,22.1 29.1,21.4 27.6,21.9 C27.3,21.9 27,21.8 27,21.6 Z M27.6,34.1 C27.8,33.2 29.4,34.9 30.6,31.9 C29.4,31.5 28.4,30.4 27.6,28.7 C27.5,28.5 27.6,28.3 27.8,28.2 C28,28.1 28.2,28.2 28.3,28.4 C29.7,31.2 32.1,32.4 34.4,30.3 C34.6,30.2 34.8,30.2 35,30.3 C35.7,31 32.9,32.3 31.4,32.1 C30.1,35.3 27.5,34.8 27.6,34.1 Z" id="Shape"></path>
                    <path d="M18.1,3.2 C15.4,2.7 12.7,5.3 13.6,8.4 L13.6,8.4 C13.8,9.5 14.3,10.3 14.3,10.3 C14.6,10.8 13.9,11.1 13.6,10.7 C13.6,10.6 13.1,9.7 12.8,8.5 C11.2,9 10,10.5 10,12.3 C10,13.1 10.3,13.9 10.7,14.5 C9.7,15.2 9,16.4 9,17.8 C9,19.1 9.6,20.2 10.5,20.9 C9.8,21.6 9.4,22.6 9.4,23.7 C9.4,25.4 10.4,26.8 11.8,27.4 C14.1,28.3 15.5,26.8 15.8,27.6 C16,28.3 13.9,28.4 13.4,28.4 C13.1,28.4 12.7,28.4 12.3,28.3 C12.3,28.5 12.3,28.6 12.3,28.8 C12.3,31.4 14.7,33.3 17.1,32.8 C18.3,36.1 22.9,36.4 24.5,33.3 L24.5,23.1 C23.6,23.6 23.7,24.5 23.1,24.3 C22.3,24 23.5,22.6 24.5,22.2 L24.5,15 C23.9,14.7 23.4,14.2 23.2,13.6 C23.1,13.4 23.2,13.2 23.4,13.1 C23.6,13 23.8,13.1 23.9,13.3 C24,13.6 24.2,13.9 24.5,14.1 L24.5,2.1 C22.7,0.3 19.4,0.7 18.1,3.2 Z M19,15.2 C20.1,14.5 20.4,13.2 20.5,12.2 C20.5,12 20.7,11.8 20.9,11.8 C21.1,11.8 21.3,12 21.3,12.2 C21.1,15.3 19.2,15.9 19.1,16 C18,16.6 15.9,17.3 15.5,18.4 C15.2,19.2 12.9,18 18.2,15.6 C15.8,13.7 14.5,14.9 14.4,14.1 C14.4,13.1 17.3,13.8 19,15.2 Z M19.4,12.4 C19.5,12.6 19.5,12.8 19.3,12.9 C19.1,13 18.9,13 18.8,12.8 C17.7,11 19,9.1 19.1,9 C19.2,8.8 19.5,8.8 19.7,8.9 C19.9,9 19.9,9.3 19.8,9.5 C19.6,9.5 18.5,11.1 19.4,12.4 Z M13.2,12.2 C13.3,12 13.6,12 13.8,12.1 C14.5,12.6 12.5,13.8 13.7,15.6 C14,16 13.3,16.5 13,16 C11.8,14.2 13.2,12.3 13.2,12.2 Z M12.1,21.3 C11,22.9 11.4,24.6 12.4,25.4 C12.6,25.5 12.6,25.8 12.5,26 C12.4,26.2 12.1,26.2 11.9,26.1 C10.5,25 10,22.9 11.4,20.9 C9.6,19.2 10.1,15.8 10.9,16 C11.7,16.2 10.3,17.7 11.5,19.7 C12.5,21.5 14.3,20.9 14.1,21.7 C14,22.4 12.6,21.6 12.1,21.3 Z M14.5,25.4 C13.5,24.5 14.2,22.8 14.8,23.3 C15.3,23.7 14.3,24.2 15,24.8 C15.3,25.1 15.9,25.1 16.4,25.3 C18.3,26 17.5,28 16.8,27.5 C16.3,27.1 17.4,26.5 16.1,26.1 C15.6,25.9 15,25.9 14.5,25.4 Z M22.4,28.7 C21.6,30.4 20.5,31.4 19.4,31.9 C20.6,34.9 22.2,33.2 22.4,34.1 C22.5,34.8 19.9,35.3 18.6,32.1 C17.3,32.3 14.3,31.1 15,30.3 C15.6,29.7 16.4,31.7 18.7,31.3 C18.7,31.3 18.7,31.3 18.7,31.3 C18.9,31.2 20.3,31.2 21.7,28.4 C21.8,28.2 22,28.1 22.2,28.2 C22.4,28.3 22.5,28.5 22.4,28.7 Z M22.5,21.9 C21,21.4 20,22.1 19.4,23.5 C20.2,24.1 20.7,24.9 20.7,25.9 C20.7,26.1 20.5,26.3 20.3,26.3 L20.3,26.3 C20.1,26.3 19.9,26.1 19.9,25.9 C19.9,25.6 19.9,25.4 19.8,25.1 C19.6,24.7 19.3,24.3 18.8,24 C18.3,23.7 17.7,23.4 16.9,23.2 C15.2,22.8 14.4,21.7 15.1,20.1 C15.3,19.6 16,20 15.8,20.4 C14.9,22.4 17.3,22.3 18.7,23 C19.4,21.3 20.9,20.4 22.8,21.1 C23.3,21.3 23,22 22.5,21.9 Z M23.3,17.8 C23.4,18 23.3,18.2 23.1,18.3 C22.6,18.6 22.6,17.9 22.1,18 C21.2,18.1 20.9,19.7 19.6,19.7 C18.7,19.7 17.7,18.8 18.4,18.4 C19.1,18 19.2,19.9 20.6,18.2 C21.8,16.8 22.9,17 23.3,17.8 Z M22.8,3.6 C22.2,3.2 21.1,3.3 20.1,4.9 C19.9,6.7 21,6.7 21.8,7.1 C22.6,7.5 23.1,8.3 23.1,9.2 C23.1,9.4 22.9,9.6 22.7,9.6 L22.7,9.6 C22.5,9.6 22.3,9.4 22.3,9.2 C22.3,8.6 21.9,8.1 21.4,7.8 C21.3,7.7 21.1,7.7 21,7.6 C20.3,7.3 19.7,7 19.4,6.1 C17.6,9.3 14.9,8.1 15.4,7.3 C15.9,6.7 17,9.1 19,5.3 C19.4,4.6 19.8,3.8 20.5,3.2 C21.2,2.7 22.3,2.4 23.2,3 C23.7,3.3 23.2,3.9 22.8,3.6 Z" id="Shape"></path>
                </g>
            </g>
        </g>
    </g>
</svg>